<?xml version="1.0" encoding="utf-8"?>
<!-- Generator: Adobe Illustrator 24.2.1, SVG Export Plug-In . SVG Version: 6.00 Build 0)  -->
<svg version="1.1" id="Layer_1" xmlns="http://www.w3.org/2000/svg" xmlns:xlink="http://www.w3.org/1999/xlink" x="0px" y="0px"
	 viewBox="0 0 1440 277" style="enable-background:new 0 0 1440 277;" xml:space="preserve">
<style type="text/css">
	.st0{fill:#F5F4F1;}
	.st1{fill:#B3B3B3;}
	.st2{fill:#808080;}
	.st3{fill:#25262A;}
</style>
<rect x="-152.1" y="154.3" class="st0" width="1706.8" height="245.5"/>
<circle class="st1" cx="126" cy="195" r="63"/>
<circle class="st1" cx="226" cy="201" r="63"/>
<circle class="st1" cx="362" cy="182" r="63"/>
<circle class="st1" cx="447" cy="195" r="63"/>
<circle class="st1" cx="548" cy="197" r="63"/>
<circle class="st1" cx="671" cy="197" r="63"/>
<circle class="st1" cx="771" cy="182" r="63"/>
<circle class="st1" cx="973" cy="183" r="63"/>
<circle class="st1" cx="1040" cy="214" r="63"/>
<circle class="st1" cx="1192" cy="191" r="63"/>
<circle class="st1" cx="1301" cy="195" r="63"/>
<circle class="st1" cx="38" cy="182" r="63"/>
<circle class="st1" cx="1396" cy="185" r="63"/>
<circle class="st2" cx="1383" cy="139" r="63"/>
<circle class="st2" cx="1237" cy="160" r="63"/>
<circle class="st2" cx="1137" cy="166" r="63"/>
<circle class="st2" cx="1001" cy="147" r="63"/>
<circle class="st2" cx="935" cy="162" r="63"/>
<circle class="st2" cx="815" cy="162" r="63"/>
<circle class="st2" cx="692" cy="162" r="63"/>
<circle class="st2" cx="592" cy="147" r="63"/>
<circle class="st2" cx="390" cy="148" r="63"/>
<circle class="st2" cx="323" cy="179" r="63"/>
<circle class="st2" cx="171" cy="156" r="63"/>
<circle class="st2" cx="62" cy="160" r="63"/>
<circle class="st2" cx="1325" cy="147" r="63"/>
<circle class="st3" cx="62" cy="109" r="63"/>
<circle class="st3" cx="221" cy="113" r="63"/>
<circle class="st3" cx="321" cy="119" r="63"/>
<circle class="st3" cx="427" cy="100" r="63"/>
<circle class="st3" cx="523" cy="115" r="63"/>
<circle class="st3" cx="683" cy="103" r="63"/>
<circle class="st3" cx="607.5" cy="83.5" r="73.5"/>
<circle class="st3" cx="781" cy="79" r="62"/>
<circle class="st3" cx="296" cy="62" r="62"/>
<circle class="st3" cx="1027" cy="74" r="48"/>
<circle class="st3" cx="939" cy="69" r="48"/>
<circle class="st3" cx="1135" cy="61" r="48"/>
<circle class="st3" cx="1329" cy="62" r="48"/>
<circle class="st3" cx="1422" cy="65" r="48"/>
<circle class="st3" cx="11" cy="66" r="48"/>
<circle class="st3" cx="497.5" cy="68.5" r="44.5"/>
<circle class="st3" cx="771" cy="122" r="63"/>
<circle class="st3" cx="866" cy="100" r="63"/>
<circle class="st3" cx="947" cy="117" r="63"/>
<circle class="st3" cx="1198" cy="101" r="63"/>
<circle class="st3" cx="1068" cy="101" r="63"/>
<circle class="st3" cx="1135" cy="132" r="63"/>
<circle class="st3" cx="1287" cy="109" r="63"/>
<circle class="st3" cx="1379" cy="113" r="63"/>
<circle class="st3" cx="133" cy="100" r="63"/>
</svg>
