<svg width="1440" height="294" viewBox="0 0 1440 294" fill="none" xmlns="http://www.w3.org/2000/svg">
<circle cx="1127" cy="145" r="41" fill="#F2C94C"/>
<circle cx="774" cy="158" r="41" fill="#F2C94C"/>
<circle cx="408" cy="203" r="41" fill="#F2C94C"/>
<circle cx="114.5" cy="110.5" r="27.5" fill="#F2C94C"/>
<circle cx="1347.5" cy="78.5" r="27.5" fill="#F2C94C"/>
<circle cx="1332.5" cy="127.5" r="31.5" fill="#FF6E5A"/>
<circle cx="1186" cy="193" r="50" fill="#FF6E5A"/>
<circle cx="1383" cy="193" r="50" fill="#4074E3"/>
<circle cx="1206" cy="100" r="45" fill="#4074E3"/>
<circle cx="1095.5" cy="202.5" r="40.5" fill="#4074E3"/>
<circle cx="820" cy="197" r="61" fill="#4074E3"/>
<circle cx="1283" cy="193" r="50" fill="#54C68F"/>
<circle cx="1077" cy="112" r="50" fill="#54C68F"/>
<circle cx="41" cy="203" r="41" fill="#FF6E5A"/>
<circle cx="1276" cy="50" r="40" fill="#54C68F"/>
<circle cx="1401" cy="106" r="39" fill="#7563C1"/>
<circle cx="570" cy="193" r="50" fill="#7563C1"/>
<circle cx="1275.5" cy="117.5" r="25.5" fill="#7563C1"/>
<circle cx="690" cy="260" r="34" fill="#7563C1"/>
<circle cx="1001" cy="189" r="54" fill="#7563C1"/>
<circle cx="841" cy="97" r="41" fill="#FF6E5A"/>
<circle cx="213" cy="203" r="48" fill="#54C68F"/>
<circle cx="919.5" cy="213.5" r="30.5" fill="#FF6E5A"/>
<circle cx="168.5" cy="152.5" r="50.5" fill="#4074E3"/>
<circle cx="87.5" cy="150.5" r="27.5" fill="#54C68F"/>
<circle cx="121" cy="210" r="40" fill="#7563C1"/>
<circle cx="901.5" cy="152.5" r="31.5" fill="#4074E3"/>
<circle cx="724" cy="199" r="35" fill="#54C68F"/>
<circle cx="475" cy="164" r="63" fill="#54C68F"/>
<circle cx="1139" cy="41" r="41" fill="#FF6E5A"/>
<circle cx="360.5" cy="198.5" r="45.5" fill="#FF6E5A"/>
</svg>
